<svg width="64" height="64" viewBox="0 0 64 64" fill="none" xmlns="http://www.w3.org/2000/svg">
<g clip-path="url(#clip0_6_2)">
<rect width="64" height="64" rx="10" fill="#0A1333"/>
<rect width="64" height="64" fill="url(#paint0_linear_6_2)"/>
<path d="M25.6328 47.08V16H40.7948C42.8108 16 44.5048 16.35 45.8768 17.05C47.2768 17.722 48.3268 18.646 49.0268 19.822C49.7548 20.97 50.1188 22.244 50.1188 23.644C50.1188 24.96 49.8808 26.066 49.4048 26.962C48.9288 27.858 48.3268 28.586 47.5988 29.146C46.8708 29.706 46.1288 30.084 45.3728 30.28V30.658C46.1568 30.826 47.0108 31.19 47.9348 31.75C48.8868 32.31 49.6988 33.122 50.3708 34.186C51.0708 35.222 51.4208 36.566 51.4208 38.218C51.4208 39.702 51.0708 41.116 50.3708 42.46C49.6988 43.804 48.6068 44.91 47.0948 45.778C45.5828 46.646 43.5948 47.08 41.1308 47.08H25.6328ZM39.4088 22.048H32.8988V28.39H39.4088C40.6688 28.39 41.5928 28.096 42.1808 27.508C42.7968 26.892 43.1048 26.122 43.1048 25.198C43.1048 24.302 42.7968 23.56 42.1808 22.972C41.5928 22.356 40.6688 22.048 39.4088 22.048ZM39.9548 33.85H32.8988V41.032H39.9548C41.3828 41.032 42.4328 40.696 43.1048 40.024C43.7768 39.324 44.1128 38.442 44.1128 37.378C44.1128 36.37 43.7768 35.53 43.1048 34.858C42.4328 34.186 41.3828 33.85 39.9548 33.85Z" fill="url(#paint1_linear_6_2)"/>
<path d="M13 47.08V16H20.266V47.08H13Z" fill="url(#paint2_linear_6_2)"/>
</g>
<defs>
<linearGradient id="paint0_linear_6_2" x1="64" y1="32" x2="0" y2="32" gradientUnits="userSpaceOnUse">
<stop stop-color="#070F2B" stop-opacity="0"/>
<stop offset="0.5" stop-color="#070F2B"/>
<stop offset="1" stop-color="#070F2B" stop-opacity="0"/>
</linearGradient>
<linearGradient id="paint1_linear_6_2" x1="31.7632" y1="5.08" x2="31.7632" y2="58.08" gradientUnits="userSpaceOnUse">
<stop offset="0.1" stop-color="#7CA0F9"/>
<stop offset="0.9" stop-color="#375198"/>
</linearGradient>
<linearGradient id="paint2_linear_6_2" x1="31.7632" y1="5.08" x2="31.7632" y2="58.08" gradientUnits="userSpaceOnUse">
<stop offset="0.1" stop-color="#7CA0F9"/>
<stop offset="0.9" stop-color="#375198"/>
</linearGradient>
<clipPath id="clip0_6_2">
<rect width="64" height="64" rx="10" fill="white"/>
</clipPath>
</defs>
</svg>
